<mxfile host="app.diagrams.net" modified="2024-05-22T14:54:05.009Z" agent="Mozilla/5.0 (Windows NT 10.0; Win64; x64) AppleWebKit/537.36 (KHTML, like Gecko) Chrome/125.0.0.0 Safari/537.36" etag="czjPvd1t-GomftXD5dx0" version="24.4.6" type="google">
  <diagram name="Page-1" id="e7e014a7-5840-1c2e-5031-d8a46d1fe8dd">
    <mxGraphModel grid="0" page="0" gridSize="10" guides="1" tooltips="1" connect="1" arrows="1" fold="1" pageScale="1" pageWidth="1169" pageHeight="826" background="none" math="0" shadow="0">
      <root>
        <mxCell id="0" />
        <mxCell id="1" parent="0" />
        <mxCell id="2" value="購入ユーザー" style="swimlane;whiteSpace=wrap;startSize=23;" vertex="1" parent="1">
          <mxGeometry x="161.5" y="39" width="280" height="1081" as="geometry" />
        </mxCell>
        <mxCell id="KcW6IALJ6MYgWLLUSF9g-22" style="edgeStyle=orthogonalEdgeStyle;rounded=0;orthogonalLoop=1;jettySize=auto;html=1;entryX=0.5;entryY=0;entryDx=0;entryDy=0;" edge="1" parent="2" source="5" target="KcW6IALJ6MYgWLLUSF9g-21">
          <mxGeometry relative="1" as="geometry" />
        </mxCell>
        <mxCell id="5" value="" style="ellipse;shape=startState;fillColor=#000000;strokeColor=none;" vertex="1" parent="2">
          <mxGeometry x="123.5" y="46" width="30" height="30" as="geometry" />
        </mxCell>
        <mxCell id="KcW6IALJ6MYgWLLUSF9g-21" value="&lt;span style=&quot;font-size: 11px;&quot;&gt;カート画面にアクセス&lt;/span&gt;" style="rounded=1;whiteSpace=wrap;html=1;arcSize=40;" vertex="1" parent="2">
          <mxGeometry x="78.5" y="121" width="120" height="40" as="geometry" />
        </mxCell>
        <mxCell id="B5iqdQGImd_z4Z8w1ikT-6" style="edgeStyle=orthogonalEdgeStyle;rounded=0;orthogonalLoop=1;jettySize=auto;html=1;entryX=0.5;entryY=0;entryDx=0;entryDy=0;" edge="1" parent="2" source="yu0LE0SMVSCvltWjNnr0-29" target="B5iqdQGImd_z4Z8w1ikT-5">
          <mxGeometry relative="1" as="geometry" />
        </mxCell>
        <mxCell id="yu0LE0SMVSCvltWjNnr0-29" value="&lt;span style=&quot;font-size: 11px;&quot;&gt;画面の表示を確認&lt;/span&gt;" style="rounded=1;whiteSpace=wrap;html=1;arcSize=40;" vertex="1" parent="2">
          <mxGeometry x="78.5" y="761" width="120" height="40" as="geometry" />
        </mxCell>
        <mxCell id="B5iqdQGImd_z4Z8w1ikT-5" value="&lt;span style=&quot;font-size: 11px;&quot;&gt;削除ボタンを押下&lt;/span&gt;" style="rounded=1;whiteSpace=wrap;html=1;arcSize=40;" vertex="1" parent="2">
          <mxGeometry x="78.5" y="841" width="120" height="40" as="geometry" />
        </mxCell>
        <mxCell id="B5iqdQGImd_z4Z8w1ikT-21" value="" style="ellipse;html=1;shape=endState;fillColor=#000000;strokeColor=default;" vertex="1" parent="2">
          <mxGeometry x="123.5" y="1006" width="30" height="30" as="geometry" />
        </mxCell>
        <mxCell id="3" value="ECサイト画面" style="swimlane;whiteSpace=wrap;startSize=23;" vertex="1" parent="1">
          <mxGeometry x="441.5" y="39" width="280" height="1081" as="geometry" />
        </mxCell>
        <mxCell id="yu0LE0SMVSCvltWjNnr0-5" value="&lt;font style=&quot;font-size: 10px;&quot;&gt;カートに入っている商品の情報を取得するAPIを&lt;/font&gt;&lt;div&gt;&lt;font style=&quot;font-size: 10px;&quot;&gt;リクエスト&lt;/font&gt;&lt;/div&gt;" style="rounded=1;whiteSpace=wrap;html=1;arcSize=40;" vertex="1" parent="3">
          <mxGeometry x="79" y="121" width="120" height="40" as="geometry" />
        </mxCell>
        <mxCell id="B5iqdQGImd_z4Z8w1ikT-46" style="edgeStyle=orthogonalEdgeStyle;rounded=0;orthogonalLoop=1;jettySize=auto;html=1;entryX=0.5;entryY=0;entryDx=0;entryDy=0;" edge="1" parent="3" source="yu0LE0SMVSCvltWjNnr0-25" target="B5iqdQGImd_z4Z8w1ikT-40">
          <mxGeometry relative="1" as="geometry" />
        </mxCell>
        <mxCell id="yu0LE0SMVSCvltWjNnr0-25" value="&lt;span style=&quot;font-size: 10px;&quot;&gt;カート情報を変更・削除した&lt;/span&gt;&lt;span style=&quot;font-size: 10px; background-color: initial;&quot;&gt;メッセージを表示&lt;/span&gt;" style="rounded=1;whiteSpace=wrap;html=1;arcSize=40;" vertex="1" parent="3">
          <mxGeometry x="79" y="681" width="120" height="40" as="geometry" />
        </mxCell>
        <mxCell id="B5iqdQGImd_z4Z8w1ikT-7" value="&lt;span style=&quot;font-size: 11px;&quot;&gt;カート情報を更新するAPIをリクエスト&lt;/span&gt;" style="rounded=1;whiteSpace=wrap;html=1;arcSize=40;" vertex="1" parent="3">
          <mxGeometry x="79" y="841" width="120" height="40" as="geometry" />
        </mxCell>
        <mxCell id="B5iqdQGImd_z4Z8w1ikT-17" value="&lt;font style=&quot;font-size: 11px;&quot;&gt;カート画面に&lt;/font&gt;&lt;div style=&quot;font-size: 11px;&quot;&gt;削除完了の&lt;/div&gt;&lt;div style=&quot;font-size: 11px;&quot;&gt;メッセージを表示&lt;/div&gt;" style="rounded=1;whiteSpace=wrap;html=1;arcSize=40;" vertex="1" parent="3">
          <mxGeometry x="79" y="921" width="120" height="40" as="geometry" />
        </mxCell>
        <mxCell id="B5iqdQGImd_z4Z8w1ikT-40" value="&lt;span style=&quot;font-size: 10px;&quot;&gt;カート画面の表示を更新&lt;/span&gt;" style="rounded=1;whiteSpace=wrap;html=1;arcSize=40;" vertex="1" parent="3">
          <mxGeometry x="79" y="761" width="120" height="40" as="geometry" />
        </mxCell>
        <mxCell id="B5iqdQGImd_z4Z8w1ikT-45" style="edgeStyle=orthogonalEdgeStyle;rounded=0;orthogonalLoop=1;jettySize=auto;html=1;entryX=0.5;entryY=0;entryDx=0;entryDy=0;" edge="1" parent="3" source="B5iqdQGImd_z4Z8w1ikT-41" target="yu0LE0SMVSCvltWjNnr0-25">
          <mxGeometry relative="1" as="geometry" />
        </mxCell>
        <mxCell id="B5iqdQGImd_z4Z8w1ikT-41" value="" style="rhombus;whiteSpace=wrap;html=1;" vertex="1" parent="3">
          <mxGeometry x="109.5" y="601" width="59" height="40" as="geometry" />
        </mxCell>
        <mxCell id="B5iqdQGImd_z4Z8w1ikT-44" value="カート情報が&lt;div&gt;更新された場合&lt;/div&gt;" style="text;html=1;align=center;verticalAlign=middle;whiteSpace=wrap;rounded=0;" vertex="1" parent="3">
          <mxGeometry x="138.5" y="641" width="110" height="30" as="geometry" />
        </mxCell>
        <mxCell id="B5iqdQGImd_z4Z8w1ikT-49" value="カート情報が&lt;div&gt;更新されていない場合&lt;/div&gt;" style="text;html=1;align=center;verticalAlign=middle;whiteSpace=wrap;rounded=0;" vertex="1" parent="3">
          <mxGeometry y="581" width="130.5" height="30" as="geometry" />
        </mxCell>
        <mxCell id="KcW6IALJ6MYgWLLUSF9g-5" value="APIサーバー" style="swimlane;whiteSpace=wrap;startSize=23;" vertex="1" parent="1">
          <mxGeometry x="721.5" y="39" width="280" height="1081" as="geometry" />
        </mxCell>
        <mxCell id="yu0LE0SMVSCvltWjNnr0-8" value="&lt;span style=&quot;font-size: 10px;&quot;&gt;商品情報を取得&lt;/span&gt;" style="rounded=1;whiteSpace=wrap;html=1;arcSize=40;" vertex="1" parent="KcW6IALJ6MYgWLLUSF9g-5">
          <mxGeometry x="79" y="121" width="120" height="40" as="geometry" />
        </mxCell>
        <mxCell id="yu0LE0SMVSCvltWjNnr0-16" value="&lt;span style=&quot;font-size: 10px;&quot;&gt;在庫が無い商品を&lt;/span&gt;&lt;div&gt;&lt;span style=&quot;font-size: 10px;&quot;&gt;カートから削除&lt;/span&gt;&lt;/div&gt;" style="rounded=1;whiteSpace=wrap;html=1;arcSize=40;" vertex="1" parent="KcW6IALJ6MYgWLLUSF9g-5">
          <mxGeometry x="78" y="201" width="120" height="40" as="geometry" />
        </mxCell>
        <mxCell id="B5iqdQGImd_z4Z8w1ikT-8" value="&lt;span style=&quot;font-size: 11px;&quot;&gt;カート情報を更新&lt;/span&gt;" style="rounded=1;whiteSpace=wrap;html=1;arcSize=40;" vertex="1" parent="KcW6IALJ6MYgWLLUSF9g-5">
          <mxGeometry x="79" y="841" width="120" height="40" as="geometry" />
        </mxCell>
        <mxCell id="B5iqdQGImd_z4Z8w1ikT-15" value="&lt;span style=&quot;font-size: 11px;&quot;&gt;更新完了のレスポンス&lt;/span&gt;&lt;div&gt;&lt;span style=&quot;font-size: 11px;&quot;&gt;を返却&lt;/span&gt;&lt;/div&gt;" style="rounded=1;whiteSpace=wrap;html=1;arcSize=40;" vertex="1" parent="KcW6IALJ6MYgWLLUSF9g-5">
          <mxGeometry x="79" y="921" width="120" height="40" as="geometry" />
        </mxCell>
        <mxCell id="B5iqdQGImd_z4Z8w1ikT-30" style="edgeStyle=orthogonalEdgeStyle;rounded=0;orthogonalLoop=1;jettySize=auto;html=1;entryX=0.5;entryY=0;entryDx=0;entryDy=0;" edge="1" parent="KcW6IALJ6MYgWLLUSF9g-5" source="B5iqdQGImd_z4Z8w1ikT-26" target="B5iqdQGImd_z4Z8w1ikT-29">
          <mxGeometry relative="1" as="geometry" />
        </mxCell>
        <mxCell id="B5iqdQGImd_z4Z8w1ikT-37" style="edgeStyle=orthogonalEdgeStyle;rounded=0;orthogonalLoop=1;jettySize=auto;html=1;entryX=0;entryY=0.5;entryDx=0;entryDy=0;" edge="1" parent="KcW6IALJ6MYgWLLUSF9g-5" source="B5iqdQGImd_z4Z8w1ikT-26" target="B5iqdQGImd_z4Z8w1ikT-35">
          <mxGeometry relative="1" as="geometry">
            <Array as="points">
              <mxPoint x="39" y="381" />
              <mxPoint x="39" y="541" />
            </Array>
          </mxGeometry>
        </mxCell>
        <mxCell id="B5iqdQGImd_z4Z8w1ikT-26" value="" style="rhombus;whiteSpace=wrap;html=1;" vertex="1" parent="KcW6IALJ6MYgWLLUSF9g-5">
          <mxGeometry x="108.5" y="361" width="59" height="40" as="geometry" />
        </mxCell>
        <mxCell id="B5iqdQGImd_z4Z8w1ikT-27" value="カート登録数&amp;nbsp;&lt;span style=&quot;background-color: initial;&quot;&gt;&amp;gt; 在庫数&lt;/span&gt;&lt;div&gt;&lt;span style=&quot;background-color: initial;&quot;&gt;&lt;i&gt;となる商品がある場合&lt;/i&gt;&lt;/span&gt;&lt;/div&gt;" style="text;html=1;align=center;verticalAlign=middle;whiteSpace=wrap;rounded=0;" vertex="1" parent="KcW6IALJ6MYgWLLUSF9g-5">
          <mxGeometry x="151.5" y="401" width="128.5" height="30" as="geometry" />
        </mxCell>
        <mxCell id="B5iqdQGImd_z4Z8w1ikT-29" value="&lt;span style=&quot;font-size: 10px;&quot;&gt;カート登録数を在庫の&lt;/span&gt;&lt;div&gt;&lt;span style=&quot;font-size: 10px;&quot;&gt;最大数に更新&lt;/span&gt;&lt;/div&gt;" style="rounded=1;whiteSpace=wrap;html=1;arcSize=40;" vertex="1" parent="KcW6IALJ6MYgWLLUSF9g-5">
          <mxGeometry x="78" y="441" width="120" height="40" as="geometry" />
        </mxCell>
        <mxCell id="B5iqdQGImd_z4Z8w1ikT-35" value="&lt;span style=&quot;font-size: 11px;&quot;&gt;商品情報を返却&lt;/span&gt;" style="rounded=1;whiteSpace=wrap;html=1;arcSize=40;" vertex="1" parent="KcW6IALJ6MYgWLLUSF9g-5">
          <mxGeometry x="78" y="521" width="120" height="40" as="geometry" />
        </mxCell>
        <mxCell id="B5iqdQGImd_z4Z8w1ikT-36" value="カート登録数&amp;nbsp;&lt;span style=&quot;background-color: initial;&quot;&gt;&amp;gt; 在庫数&lt;/span&gt;&lt;div&gt;&lt;span style=&quot;background-color: initial;&quot;&gt;&lt;i&gt;となる商品がない場合&lt;/i&gt;&lt;/span&gt;&lt;/div&gt;" style="text;html=1;align=center;verticalAlign=middle;whiteSpace=wrap;rounded=0;" vertex="1" parent="KcW6IALJ6MYgWLLUSF9g-5">
          <mxGeometry y="341" width="128.5" height="30" as="geometry" />
        </mxCell>
        <mxCell id="KcW6IALJ6MYgWLLUSF9g-20" value="データベース" style="swimlane;whiteSpace=wrap;startSize=23;" vertex="1" parent="1">
          <mxGeometry x="1001.5" y="39" width="280" height="1081" as="geometry" />
        </mxCell>
        <mxCell id="yu0LE0SMVSCvltWjNnr0-13" style="edgeStyle=orthogonalEdgeStyle;rounded=0;orthogonalLoop=1;jettySize=auto;html=1;entryX=0.5;entryY=0;entryDx=0;entryDy=0;" edge="1" parent="KcW6IALJ6MYgWLLUSF9g-20" source="yu0LE0SMVSCvltWjNnr0-9" target="yu0LE0SMVSCvltWjNnr0-12">
          <mxGeometry relative="1" as="geometry" />
        </mxCell>
        <mxCell id="yu0LE0SMVSCvltWjNnr0-9" value="&lt;span style=&quot;font-size: 10px;&quot;&gt;商品情報を検索&lt;/span&gt;" style="rounded=1;whiteSpace=wrap;html=1;arcSize=40;" vertex="1" parent="KcW6IALJ6MYgWLLUSF9g-20">
          <mxGeometry x="79" y="121" width="120" height="40" as="geometry" />
        </mxCell>
        <mxCell id="yu0LE0SMVSCvltWjNnr0-12" value="&lt;span style=&quot;font-size: 10px;&quot;&gt;商品情報を返却&lt;/span&gt;" style="rounded=1;whiteSpace=wrap;html=1;arcSize=40;" vertex="1" parent="KcW6IALJ6MYgWLLUSF9g-20">
          <mxGeometry x="79" y="201" width="120" height="40" as="geometry" />
        </mxCell>
        <mxCell id="PIhT_LxPU9tVxHSuKDwn-6" style="edgeStyle=orthogonalEdgeStyle;rounded=0;orthogonalLoop=1;jettySize=auto;html=1;entryX=0.5;entryY=0;entryDx=0;entryDy=0;" edge="1" parent="KcW6IALJ6MYgWLLUSF9g-20" source="yu0LE0SMVSCvltWjNnr0-18" target="yu0LE0SMVSCvltWjNnr0-21">
          <mxGeometry relative="1" as="geometry" />
        </mxCell>
        <mxCell id="yu0LE0SMVSCvltWjNnr0-18" value="&lt;span style=&quot;font-size: 10px;&quot;&gt;カート情報を更新&lt;/span&gt;" style="rounded=1;whiteSpace=wrap;html=1;arcSize=40;" vertex="1" parent="KcW6IALJ6MYgWLLUSF9g-20">
          <mxGeometry x="79" y="281" width="120" height="40" as="geometry" />
        </mxCell>
        <mxCell id="yu0LE0SMVSCvltWjNnr0-21" value="&lt;span style=&quot;font-size: 11px;&quot;&gt;更新完了のレスポンス&lt;/span&gt;&lt;div&gt;&lt;span style=&quot;font-size: 11px;&quot;&gt;を返却&lt;/span&gt;&lt;/div&gt;" style="rounded=1;whiteSpace=wrap;html=1;arcSize=40;" vertex="1" parent="KcW6IALJ6MYgWLLUSF9g-20">
          <mxGeometry x="79" y="361" width="120" height="40" as="geometry" />
        </mxCell>
        <mxCell id="PIhT_LxPU9tVxHSuKDwn-5" style="edgeStyle=orthogonalEdgeStyle;rounded=0;orthogonalLoop=1;jettySize=auto;html=1;entryX=0.5;entryY=0;entryDx=0;entryDy=0;" edge="1" parent="KcW6IALJ6MYgWLLUSF9g-20" source="B5iqdQGImd_z4Z8w1ikT-9" target="B5iqdQGImd_z4Z8w1ikT-14">
          <mxGeometry relative="1" as="geometry" />
        </mxCell>
        <mxCell id="B5iqdQGImd_z4Z8w1ikT-9" value="&lt;span style=&quot;font-size: 11px;&quot;&gt;カート情報を更新&lt;/span&gt;" style="rounded=1;whiteSpace=wrap;html=1;arcSize=40;" vertex="1" parent="KcW6IALJ6MYgWLLUSF9g-20">
          <mxGeometry x="79" y="841" width="120" height="40" as="geometry" />
        </mxCell>
        <mxCell id="B5iqdQGImd_z4Z8w1ikT-14" value="&lt;span style=&quot;font-size: 11px;&quot;&gt;更新完了のレスポンス&lt;/span&gt;&lt;div&gt;&lt;span style=&quot;font-size: 11px;&quot;&gt;を返却&lt;/span&gt;&lt;/div&gt;" style="rounded=1;whiteSpace=wrap;html=1;arcSize=40;" vertex="1" parent="KcW6IALJ6MYgWLLUSF9g-20">
          <mxGeometry x="79" y="921" width="120" height="40" as="geometry" />
        </mxCell>
        <mxCell id="B5iqdQGImd_z4Z8w1ikT-34" style="edgeStyle=orthogonalEdgeStyle;rounded=0;orthogonalLoop=1;jettySize=auto;html=1;entryX=0.5;entryY=0;entryDx=0;entryDy=0;" edge="1" parent="KcW6IALJ6MYgWLLUSF9g-20" source="B5iqdQGImd_z4Z8w1ikT-31" target="B5iqdQGImd_z4Z8w1ikT-33">
          <mxGeometry relative="1" as="geometry" />
        </mxCell>
        <mxCell id="B5iqdQGImd_z4Z8w1ikT-31" value="&lt;font style=&quot;font-size: 12px;&quot;&gt;カート情報を更新&lt;/font&gt;" style="rounded=1;whiteSpace=wrap;html=1;arcSize=40;" vertex="1" parent="KcW6IALJ6MYgWLLUSF9g-20">
          <mxGeometry x="79" y="441" width="120" height="40" as="geometry" />
        </mxCell>
        <mxCell id="B5iqdQGImd_z4Z8w1ikT-33" value="&lt;span style=&quot;font-size: 11px;&quot;&gt;更新完了のレスポンス&lt;/span&gt;&lt;div&gt;&lt;span style=&quot;font-size: 11px;&quot;&gt;を返却&lt;/span&gt;&lt;/div&gt;" style="rounded=1;whiteSpace=wrap;html=1;arcSize=40;" vertex="1" parent="KcW6IALJ6MYgWLLUSF9g-20">
          <mxGeometry x="79" y="521" width="120" height="40" as="geometry" />
        </mxCell>
        <mxCell id="yu0LE0SMVSCvltWjNnr0-6" style="edgeStyle=orthogonalEdgeStyle;rounded=0;orthogonalLoop=1;jettySize=auto;html=1;entryX=0;entryY=0.5;entryDx=0;entryDy=0;" edge="1" parent="1" source="KcW6IALJ6MYgWLLUSF9g-21" target="yu0LE0SMVSCvltWjNnr0-5">
          <mxGeometry relative="1" as="geometry" />
        </mxCell>
        <mxCell id="yu0LE0SMVSCvltWjNnr0-10" style="edgeStyle=orthogonalEdgeStyle;rounded=0;orthogonalLoop=1;jettySize=auto;html=1;entryX=0;entryY=0.5;entryDx=0;entryDy=0;" edge="1" parent="1" source="yu0LE0SMVSCvltWjNnr0-5" target="yu0LE0SMVSCvltWjNnr0-8">
          <mxGeometry relative="1" as="geometry" />
        </mxCell>
        <mxCell id="yu0LE0SMVSCvltWjNnr0-11" style="edgeStyle=orthogonalEdgeStyle;rounded=0;orthogonalLoop=1;jettySize=auto;html=1;entryX=0;entryY=0.5;entryDx=0;entryDy=0;" edge="1" parent="1" source="yu0LE0SMVSCvltWjNnr0-8" target="yu0LE0SMVSCvltWjNnr0-9">
          <mxGeometry relative="1" as="geometry" />
        </mxCell>
        <mxCell id="yu0LE0SMVSCvltWjNnr0-15" style="edgeStyle=orthogonalEdgeStyle;rounded=0;orthogonalLoop=1;jettySize=auto;html=1;entryX=1;entryY=0.5;entryDx=0;entryDy=0;" edge="1" parent="1" source="yu0LE0SMVSCvltWjNnr0-12">
          <mxGeometry relative="1" as="geometry">
            <mxPoint x="920.5" y="260" as="targetPoint" />
          </mxGeometry>
        </mxCell>
        <mxCell id="B5iqdQGImd_z4Z8w1ikT-10" style="edgeStyle=orthogonalEdgeStyle;rounded=0;orthogonalLoop=1;jettySize=auto;html=1;entryX=0;entryY=0.5;entryDx=0;entryDy=0;" edge="1" parent="1" source="B5iqdQGImd_z4Z8w1ikT-5" target="B5iqdQGImd_z4Z8w1ikT-7">
          <mxGeometry relative="1" as="geometry" />
        </mxCell>
        <mxCell id="B5iqdQGImd_z4Z8w1ikT-11" style="edgeStyle=orthogonalEdgeStyle;rounded=0;orthogonalLoop=1;jettySize=auto;html=1;entryX=0;entryY=0.5;entryDx=0;entryDy=0;" edge="1" parent="1" source="B5iqdQGImd_z4Z8w1ikT-7" target="B5iqdQGImd_z4Z8w1ikT-8">
          <mxGeometry relative="1" as="geometry" />
        </mxCell>
        <mxCell id="B5iqdQGImd_z4Z8w1ikT-22" style="edgeStyle=orthogonalEdgeStyle;rounded=0;orthogonalLoop=1;jettySize=auto;html=1;entryX=0.5;entryY=0;entryDx=0;entryDy=0;" edge="1" parent="1" source="B5iqdQGImd_z4Z8w1ikT-18" target="B5iqdQGImd_z4Z8w1ikT-21">
          <mxGeometry relative="1" as="geometry" />
        </mxCell>
        <mxCell id="B5iqdQGImd_z4Z8w1ikT-18" value="&lt;span style=&quot;font-size: 11px;&quot;&gt;削除が完了したことを&lt;/span&gt;&lt;div&gt;&lt;span style=&quot;font-size: 11px;&quot;&gt;確認&lt;/span&gt;&lt;/div&gt;" style="rounded=1;whiteSpace=wrap;html=1;arcSize=40;" vertex="1" parent="1">
          <mxGeometry x="240" y="960" width="120" height="40" as="geometry" />
        </mxCell>
        <mxCell id="B5iqdQGImd_z4Z8w1ikT-19" style="edgeStyle=orthogonalEdgeStyle;rounded=0;orthogonalLoop=1;jettySize=auto;html=1;entryX=1;entryY=0.5;entryDx=0;entryDy=0;" edge="1" parent="1" source="B5iqdQGImd_z4Z8w1ikT-15" target="B5iqdQGImd_z4Z8w1ikT-17">
          <mxGeometry relative="1" as="geometry" />
        </mxCell>
        <mxCell id="B5iqdQGImd_z4Z8w1ikT-20" style="edgeStyle=orthogonalEdgeStyle;rounded=0;orthogonalLoop=1;jettySize=auto;html=1;entryX=1;entryY=0.5;entryDx=0;entryDy=0;" edge="1" parent="1" source="B5iqdQGImd_z4Z8w1ikT-17" target="B5iqdQGImd_z4Z8w1ikT-18">
          <mxGeometry relative="1" as="geometry" />
        </mxCell>
        <mxCell id="B5iqdQGImd_z4Z8w1ikT-24" style="edgeStyle=orthogonalEdgeStyle;rounded=0;orthogonalLoop=1;jettySize=auto;html=1;entryX=0;entryY=0.5;entryDx=0;entryDy=0;" edge="1" parent="1" source="yu0LE0SMVSCvltWjNnr0-16" target="yu0LE0SMVSCvltWjNnr0-18">
          <mxGeometry relative="1" as="geometry">
            <Array as="points">
              <mxPoint x="860" y="340" />
            </Array>
          </mxGeometry>
        </mxCell>
        <mxCell id="B5iqdQGImd_z4Z8w1ikT-28" style="edgeStyle=orthogonalEdgeStyle;rounded=0;orthogonalLoop=1;jettySize=auto;html=1;entryX=1;entryY=0.5;entryDx=0;entryDy=0;" edge="1" parent="1" source="yu0LE0SMVSCvltWjNnr0-21" target="B5iqdQGImd_z4Z8w1ikT-26">
          <mxGeometry relative="1" as="geometry" />
        </mxCell>
        <mxCell id="B5iqdQGImd_z4Z8w1ikT-32" style="edgeStyle=orthogonalEdgeStyle;rounded=0;orthogonalLoop=1;jettySize=auto;html=1;entryX=0;entryY=0.5;entryDx=0;entryDy=0;" edge="1" parent="1" source="B5iqdQGImd_z4Z8w1ikT-29" target="B5iqdQGImd_z4Z8w1ikT-31">
          <mxGeometry relative="1" as="geometry" />
        </mxCell>
        <mxCell id="B5iqdQGImd_z4Z8w1ikT-38" style="edgeStyle=orthogonalEdgeStyle;rounded=0;orthogonalLoop=1;jettySize=auto;html=1;entryX=1;entryY=0.5;entryDx=0;entryDy=0;" edge="1" parent="1" source="B5iqdQGImd_z4Z8w1ikT-33" target="B5iqdQGImd_z4Z8w1ikT-35">
          <mxGeometry relative="1" as="geometry" />
        </mxCell>
        <mxCell id="B5iqdQGImd_z4Z8w1ikT-48" style="edgeStyle=orthogonalEdgeStyle;rounded=0;orthogonalLoop=1;jettySize=auto;html=1;entryX=1;entryY=0.5;entryDx=0;entryDy=0;" edge="1" parent="1" source="B5iqdQGImd_z4Z8w1ikT-40" target="yu0LE0SMVSCvltWjNnr0-29">
          <mxGeometry relative="1" as="geometry" />
        </mxCell>
        <mxCell id="B5iqdQGImd_z4Z8w1ikT-50" style="edgeStyle=orthogonalEdgeStyle;rounded=0;orthogonalLoop=1;jettySize=auto;html=1;entryX=0.5;entryY=0;entryDx=0;entryDy=0;" edge="1" parent="1" source="B5iqdQGImd_z4Z8w1ikT-41" target="yu0LE0SMVSCvltWjNnr0-29">
          <mxGeometry relative="1" as="geometry" />
        </mxCell>
        <mxCell id="B5iqdQGImd_z4Z8w1ikT-51" style="edgeStyle=orthogonalEdgeStyle;rounded=0;orthogonalLoop=1;jettySize=auto;html=1;entryX=1;entryY=0.5;entryDx=0;entryDy=0;" edge="1" parent="1" source="B5iqdQGImd_z4Z8w1ikT-35" target="B5iqdQGImd_z4Z8w1ikT-41">
          <mxGeometry relative="1" as="geometry">
            <Array as="points">
              <mxPoint x="860" y="660" />
            </Array>
          </mxGeometry>
        </mxCell>
        <mxCell id="B5iqdQGImd_z4Z8w1ikT-52" style="edgeStyle=orthogonalEdgeStyle;rounded=0;orthogonalLoop=1;jettySize=auto;html=1;entryX=0;entryY=0.5;entryDx=0;entryDy=0;" edge="1" parent="1" source="B5iqdQGImd_z4Z8w1ikT-8" target="B5iqdQGImd_z4Z8w1ikT-9">
          <mxGeometry relative="1" as="geometry" />
        </mxCell>
        <mxCell id="B5iqdQGImd_z4Z8w1ikT-53" style="edgeStyle=orthogonalEdgeStyle;rounded=0;orthogonalLoop=1;jettySize=auto;html=1;entryX=1;entryY=0.5;entryDx=0;entryDy=0;" edge="1" parent="1" source="B5iqdQGImd_z4Z8w1ikT-14" target="B5iqdQGImd_z4Z8w1ikT-15">
          <mxGeometry relative="1" as="geometry" />
        </mxCell>
      </root>
    </mxGraphModel>
  </diagram>
</mxfile>
